<svg width="20" height="20" viewBox="0 0 20 20" fill="none" xmlns="http://www.w3.org/2000/svg">
<g clip-path="url(#clip0_3_212)">
<path d="M13.5448 6.45511C12.6453 5.55564 11.3755 4.97363 9.99984 4.97363C8.62418 4.97363 7.35434 5.52919 6.45487 6.45511C5.5554 7.35459 4.97339 8.62443 4.97339 10.0001C4.97339 11.3757 5.5554 12.6456 6.45487 13.5451C7.35434 14.4445 8.62418 15.0265 9.99984 15.0265C11.3755 15.0265 12.6453 14.471 13.5448 13.5451C14.4443 12.6456 15.0263 11.3757 15.0263 10.0001C15.0263 8.62443 14.4707 7.35459 13.5448 6.45511Z" fill="#858BB2"/>
<path d="M10.0001 3.4127C10.3705 3.4127 10.6879 3.09524 10.6879 2.72487V0.68783C10.6879 0.31746 10.3705 0 10.0001 0C9.62972 0 9.31226 0.31746 9.31226 0.68783V2.72487C9.31226 3.09524 9.62972 3.4127 10.0001 3.4127Z" fill="#858BB2"/>
<path d="M15.6349 5.3441L17.09 3.88908C17.3545 3.62453 17.3545 3.20124 17.09 2.93669C16.8254 2.67214 16.4021 2.67214 16.1376 2.93669L14.6825 4.39172C14.418 4.65627 14.418 5.07955 14.6825 5.3441C14.9206 5.60865 15.3439 5.60865 15.6349 5.3441Z" fill="#858BB2"/>
<path d="M19.3123 9.31226H17.2752C16.9049 9.31226 16.5874 9.62972 16.5874 10.0001C16.5874 10.3705 16.9049 10.6879 17.2752 10.6879H19.3123C19.6826 10.6879 20.0001 10.3705 20.0001 10.0001C20.0001 9.62972 19.6826 9.31226 19.3123 9.31226Z" fill="#858BB2"/>
<path d="M15.6083 14.6562C15.3438 14.3916 14.9205 14.3916 14.6559 14.6562C14.3914 14.9207 14.3914 15.344 14.6559 15.6086L16.111 17.0636C16.3755 17.3281 16.7988 17.3281 17.0633 17.0636C17.3279 16.799 17.3279 16.3758 17.0633 16.1112L15.6083 14.6562Z" fill="#858BB2"/>
<path d="M10.0001 16.5872C9.62972 16.5872 9.31226 16.9046 9.31226 17.275V19.312C9.31226 19.6824 9.62972 19.9999 10.0001 19.9999C10.3705 19.9999 10.6879 19.6824 10.6879 19.312V17.275C10.6879 16.9046 10.3705 16.5872 10.0001 16.5872Z" fill="#858BB2"/>
<path d="M4.36511 14.6562L2.91008 16.1112C2.64553 16.3758 2.64553 16.799 2.91008 17.0636C3.17463 17.3281 3.59791 17.3281 3.86246 17.0636L5.31749 15.6086C5.58204 15.344 5.58204 14.9207 5.31749 14.6562C5.07939 14.3916 4.65611 14.3916 4.36511 14.6562Z" fill="#858BB2"/>
<path d="M3.4127 10.0001C3.4127 9.62972 3.09524 9.31226 2.72487 9.31226H0.68783C0.31746 9.31226 0 9.62972 0 10.0001C0 10.3705 0.31746 10.6879 0.68783 10.6879H2.72487C3.09524 10.6879 3.4127 10.3705 3.4127 10.0001Z" fill="#858BB2"/>
<path d="M4.36511 5.3441C4.62966 5.60865 5.05294 5.60865 5.31749 5.3441C5.58204 5.07955 5.58204 4.65627 5.31749 4.39172L3.86246 2.93669C3.59791 2.67214 3.17463 2.67214 2.91008 2.93669C2.64553 3.20124 2.64553 3.62453 2.91008 3.88908L4.36511 5.3441Z" fill="#858BB2"/>
</g>
<defs>
<clipPath id="clip0_3_212">
<rect width="20" height="20" fill="white"/>
</clipPath>
</defs>
</svg>
